<?xml version="1.0" encoding="UTF-8" standalone="no"?><!DOCTYPE svg PUBLIC "-//W3C//DTD SVG 1.1//EN" "http://www.w3.org/Graphics/SVG/1.1/DTD/svg11.dtd"><svg width="100%" height="100%" viewBox="0 0 267 267" version="1.1" xmlns="http://www.w3.org/2000/svg" xmlns:xlink="http://www.w3.org/1999/xlink" xml:space="preserve" xmlns:serif="http://www.serif.com/" style="fill-rule:evenodd;clip-rule:evenodd;stroke-linejoin:round;stroke-miterlimit:2;"><rect x="8.333" y="8.333" width="250" height="250" style="fill:#0057b7;"/><path d="M84.74,219.352c-0,1.934 -0.492,4.472 -1.477,7.614c-8.626,26.467 -20.089,39.701 -34.388,39.701c-14.627,-0 -26.489,-12.871 -35.584,-38.614c-8.861,-24.896 -13.291,-56.318 -13.291,-94.266c-0,-36.74 4.337,-67.921 13.01,-93.542c9.048,-26.83 20.558,-40.245 34.529,-40.245c15.19,-0 27.098,12.025 35.724,36.075c0.938,2.659 1.406,5.016 1.406,7.07c0,2.296 -1.629,10.817 -4.887,25.561c-3.258,14.744 -5.309,23.023 -6.153,24.836c-0.375,0.967 -0.844,1.45 -1.407,1.45c-0.234,0 -1.406,-2.417 -3.516,-7.251c-2.532,-5.801 -5.016,-10.333 -7.454,-13.596c-3.704,-4.835 -7.548,-7.252 -11.533,-7.252c-6.892,0 -12.401,6.647 -16.526,19.941c-3.798,12.328 -5.697,27.555 -5.697,45.684c0,18.37 1.899,33.779 5.697,46.227c4.125,13.535 9.634,20.303 16.526,20.303c4.078,0 7.946,-2.296 11.603,-6.888c2.391,-3.022 4.829,-7.252 7.314,-12.69c2.063,-4.593 3.211,-6.889 3.446,-6.889c0.468,0 0.937,0.665 1.406,1.994c0.75,2.176 2.79,9.729 6.118,22.66c3.423,13.415 5.134,20.788 5.134,22.117Z" style="fill:#ffd700;fill-rule:nonzero;"/><path d="M186.428,11.602c-0,13.778 -0.223,34.474 -0.669,62.089c-0.445,27.616 -0.668,48.373 -0.668,62.271l0,119.465c0,3.263 -0.679,4.895 -2.039,4.895c-1.125,-0 -2.825,0.121 -5.098,0.362c-2.274,0.242 -3.974,0.363 -5.099,0.363c-1.219,-0 -3.047,-0.242 -5.485,-0.725c-2.438,-0.484 -4.266,-0.725 -5.485,-0.725c-0.844,-0 -1.852,-1.994 -3.024,-5.983c-3.376,-11.723 -10.971,-37.706 -22.785,-77.951c-3.235,-11.24 -8.158,-27.797 -14.768,-49.672c-0.188,-0.725 -0.539,-1.45 -1.055,-2.175c-0.375,0.846 -0.562,2.175 -0.562,3.988c-0,14.019 0.152,35.048 0.457,63.087c0.304,28.038 0.457,49.067 0.457,63.086c-0,4.23 -0.633,6.345 -1.899,6.345l-24.332,-0c-1.359,-0 -2.039,-1.873 -2.039,-5.62c-0,-13.052 0.246,-32.752 0.738,-59.098c0.492,-26.347 0.739,-46.106 0.739,-59.28c-0,-13.898 -0.223,-34.685 -0.669,-62.361c-0.445,-27.676 -0.668,-48.402 -0.668,-62.18c0,-2.658 0.915,-3.988 2.743,-3.988c2.719,0 6.071,-0.483 10.056,-1.45c0.938,-0.242 2.79,-1.027 5.556,-2.357c2.344,-1.087 4.196,-1.631 5.555,-1.631c0.563,-0 1.43,2.054 2.602,6.163l26.231,92.636c2.344,8.339 5.884,20.545 10.619,36.619c1.172,3.746 2.18,5.62 3.024,5.62c0.609,-0 0.914,-4.714 0.914,-14.141c-0,-12.689 -0.27,-31.784 -0.809,-57.285c-0.539,-25.5 -0.808,-44.656 -0.808,-57.466c-0,-4.472 0.492,-6.708 1.476,-6.708c2.813,0 7.056,-0.302 12.729,-0.906c5.673,-0.605 9.915,-0.907 12.728,-0.907c0.891,0 1.337,1.874 1.337,5.62Z" style="fill:#ffd700;fill-rule:nonzero;"/><path d="M266.667,171.131c-0,27.555 -3.27,49.913 -9.81,67.074c-6.541,17.162 -15.132,25.742 -25.774,25.742c-10.314,0 -18.8,-8.459 -25.457,-25.379c-6.657,-16.92 -9.986,-38.674 -9.986,-65.262c-0,-28.038 3.188,-50.789 9.564,-68.253c6.376,-17.463 15.002,-26.195 25.879,-26.195c10.595,-0 19.175,8.55 25.738,25.651c6.564,17.101 9.846,39.309 9.846,66.622Zm-23.066,-0c-0,-9.548 -1.149,-17.977 -3.446,-25.289c-2.298,-7.312 -5.275,-10.968 -8.931,-10.968c-3.704,0 -6.751,3.747 -9.142,11.24c-2.251,7.009 -3.376,15.348 -3.376,25.017c0,9.789 1.125,18.188 3.376,25.198c2.391,7.493 5.438,11.24 9.142,11.24c3.656,-0 6.68,-3.747 9.071,-11.24c2.204,-7.01 3.306,-15.409 3.306,-25.198Z" style="fill:#ffd700;fill-rule:nonzero;"/></svg>